<svg xmlns="http://www.w3.org/2000/svg" viewBox="0 0 240 240" fill="none">
  <ellipse cx="120" cy="214" rx="66" ry="12" fill="#000" opacity="0.14" filter="blur(6px)"/>
  <!-- Bell Pepper Lobes (Green/Yellow/Red blend) -->
  <path d="M120 55 C120 40 126 35 130 30" stroke="#15803d" stroke-width="5" stroke-linecap="round"/>
  <!-- Three Lobes -->
  <path d="M75 80 C60 110 65 175 90 205 C105 208 115 195 120 185 C110 135 100 95 75 80 Z" fill="#16a34a"/>
  <path d="M165 80 C180 110 175 175 150 205 C135 208 125 195 120 185 C130 135 140 95 165 80 Z" fill="#eab308"/>
  <path d="M90 75 C120 70 150 75 160 100 C165 145 145 195 120 205 C95 195 75 145 80 100 Z" fill="#dc2626"/>
  <!-- Specular -->
  <ellipse cx="105" cy="105" rx="12" ry="8" fill="#fff" opacity="0.45" transform="rotate(-20 105 105)"/>
</svg>